<mxfile host="Electron" agent="Mozilla/5.0 (Windows NT 10.0; Win64; x64) AppleWebKit/537.36 (KHTML, like Gecko) draw.io/27.0.2 Chrome/134.0.6998.205 Electron/35.3.0 Safari/537.36" version="27.0.2">
  <diagram id="CZdY7CtGrKhzmkFzMvzD" name="Page-1">
    <mxGraphModel dx="1412" dy="827" grid="1" gridSize="10" guides="1" tooltips="1" connect="1" arrows="1" fold="1" page="1" pageScale="1" pageWidth="850" pageHeight="1100" math="0" shadow="0">
      <root>
        <mxCell id="0" />
        <mxCell id="1" parent="0" />
        <mxCell id="pJ4A8e3GL2X-8J95vMgA-1" style="edgeStyle=orthogonalEdgeStyle;rounded=0;orthogonalLoop=1;jettySize=auto;html=1;exitX=0.5;exitY=1;exitDx=0;exitDy=0;entryX=0.5;entryY=0;entryDx=0;entryDy=0;strokeWidth=2;strokeColor=#4D4D4D;endArrow=blockThin;endFill=1;" edge="1" parent="1" source="pJ4A8e3GL2X-8J95vMgA-2" target="pJ4A8e3GL2X-8J95vMgA-9">
          <mxGeometry relative="1" as="geometry">
            <Array as="points">
              <mxPoint x="600" y="470" />
              <mxPoint x="285" y="470" />
            </Array>
          </mxGeometry>
        </mxCell>
        <mxCell id="pJ4A8e3GL2X-8J95vMgA-2" value="" style="rounded=0;whiteSpace=wrap;html=1;strokeWidth=1;fillColor=#DFEAF2;" vertex="1" parent="1">
          <mxGeometry x="565" y="350" width="70" height="70" as="geometry" />
        </mxCell>
        <mxCell id="pJ4A8e3GL2X-8J95vMgA-3" style="edgeStyle=orthogonalEdgeStyle;rounded=0;orthogonalLoop=1;jettySize=auto;html=1;exitX=0.5;exitY=1;exitDx=0;exitDy=0;entryX=0.5;entryY=0;entryDx=0;entryDy=0;strokeWidth=2;strokeColor=#4D4D4D;endArrow=blockThin;endFill=1;" edge="1" parent="1" source="pJ4A8e3GL2X-8J95vMgA-29" target="pJ4A8e3GL2X-8J95vMgA-10">
          <mxGeometry relative="1" as="geometry">
            <Array as="points">
              <mxPoint x="670" y="480" />
              <mxPoint x="480" y="480" />
            </Array>
          </mxGeometry>
        </mxCell>
        <mxCell id="pJ4A8e3GL2X-8J95vMgA-4" style="edgeStyle=orthogonalEdgeStyle;rounded=0;orthogonalLoop=1;jettySize=auto;html=1;exitX=0.5;exitY=1;exitDx=0;exitDy=0;strokeWidth=2;strokeColor=#4D4D4D;endArrow=blockThin;endFill=1;" edge="1" parent="1" source="pJ4A8e3GL2X-8J95vMgA-30" target="pJ4A8e3GL2X-8J95vMgA-11">
          <mxGeometry relative="1" as="geometry">
            <Array as="points">
              <mxPoint x="740" y="490" />
              <mxPoint x="665" y="490" />
            </Array>
          </mxGeometry>
        </mxCell>
        <mxCell id="pJ4A8e3GL2X-8J95vMgA-5" style="edgeStyle=orthogonalEdgeStyle;rounded=0;orthogonalLoop=1;jettySize=auto;html=1;exitX=0.5;exitY=1;exitDx=0;exitDy=0;entryX=0.5;entryY=0;entryDx=0;entryDy=0;strokeWidth=4;strokeColor=#4D4D4D;endArrow=blockThin;endFill=1;" edge="1" parent="1" source="pJ4A8e3GL2X-8J95vMgA-31" target="pJ4A8e3GL2X-8J95vMgA-12">
          <mxGeometry relative="1" as="geometry">
            <Array as="points">
              <mxPoint x="810" y="490" />
              <mxPoint x="860" y="490" />
            </Array>
          </mxGeometry>
        </mxCell>
        <mxCell id="pJ4A8e3GL2X-8J95vMgA-6" style="edgeStyle=orthogonalEdgeStyle;rounded=0;orthogonalLoop=1;jettySize=auto;html=1;exitX=0.5;exitY=1;exitDx=0;exitDy=0;strokeWidth=4;strokeColor=#4D4D4D;endArrow=blockThin;endFill=1;" edge="1" parent="1" source="pJ4A8e3GL2X-8J95vMgA-7" target="pJ4A8e3GL2X-8J95vMgA-13">
          <mxGeometry relative="1" as="geometry">
            <Array as="points">
              <mxPoint x="880" y="480" />
              <mxPoint x="1065" y="480" />
            </Array>
          </mxGeometry>
        </mxCell>
        <mxCell id="pJ4A8e3GL2X-8J95vMgA-7" value="" style="rounded=0;whiteSpace=wrap;html=1;strokeWidth=3;fillColor=#f8cecc;strokeColor=#b85450;" vertex="1" parent="1">
          <mxGeometry x="845" y="350" width="70" height="70" as="geometry" />
        </mxCell>
        <mxCell id="pJ4A8e3GL2X-8J95vMgA-8" value="" style="rounded=0;whiteSpace=wrap;html=1;strokeWidth=3;fillColor=#f8cecc;strokeColor=#b85450;" vertex="1" parent="1">
          <mxGeometry x="915" y="350" width="70" height="70" as="geometry" />
        </mxCell>
        <mxCell id="pJ4A8e3GL2X-8J95vMgA-9" value="&lt;font style=&quot;font-size: 30px; color: rgb(77, 77, 77);&quot; face=&quot;Cascadia Code&quot;&gt;&quot;Orlan&quot;&lt;/font&gt;" style="text;html=1;align=center;verticalAlign=middle;whiteSpace=wrap;rounded=0;fillColor=#ECF3E7;strokeColor=#ADC8A4;strokeWidth=2;" vertex="1" parent="1">
          <mxGeometry x="210" y="530" width="150" height="50" as="geometry" />
        </mxCell>
        <mxCell id="pJ4A8e3GL2X-8J95vMgA-10" value="&lt;span style=&quot;font-family: &amp;quot;Cascadia Code&amp;quot;; font-size: 30px;&quot;&gt;&lt;font style=&quot;color: rgb(77, 77, 77);&quot;&gt;&quot;Infinita&quot;&lt;/font&gt;&lt;/span&gt;" style="text;html=1;align=center;verticalAlign=middle;whiteSpace=wrap;rounded=0;fillColor=#ECF3E7;strokeColor=#ADC8A4;strokeWidth=2;container=0;" vertex="1" parent="1">
          <mxGeometry x="380" y="530" width="200" height="50" as="geometry" />
        </mxCell>
        <mxCell id="pJ4A8e3GL2X-8J95vMgA-11" value="&lt;span style=&quot;font-family: &amp;quot;Cascadia Code&amp;quot;; font-size: 30px;&quot;&gt;&lt;font style=&quot;color: rgb(77, 77, 77);&quot;&gt;&quot;Arto&quot;&lt;/font&gt;&lt;/span&gt;" style="text;html=1;align=center;verticalAlign=middle;whiteSpace=wrap;rounded=0;fillColor=#ECF3E7;strokeColor=#ADC8A4;strokeWidth=2;container=0;" vertex="1" parent="1">
          <mxGeometry x="600" y="531" width="130" height="50" as="geometry" />
        </mxCell>
        <mxCell id="pJ4A8e3GL2X-8J95vMgA-12" value="&lt;span style=&quot;font-family: &amp;quot;Cascadia Code&amp;quot;; font-size: 30px;&quot;&gt;&lt;font style=&quot;color: rgb(77, 77, 77);&quot;&gt;&quot;CristÃ³bal&quot;&lt;/font&gt;&lt;/span&gt;" style="text;html=1;align=center;verticalAlign=middle;whiteSpace=wrap;rounded=0;fillColor=#ECF3E7;strokeColor=#ADC8A4;strokeWidth=2;" vertex="1" parent="1">
          <mxGeometry x="750" y="531" width="220" height="50" as="geometry" />
        </mxCell>
        <mxCell id="pJ4A8e3GL2X-8J95vMgA-13" value="&lt;span style=&quot;font-family: &amp;quot;Cascadia Code&amp;quot;; font-size: 30px;&quot;&gt;&lt;font style=&quot;color: rgb(77, 77, 77);&quot;&gt;&quot;Ruffo&quot;&lt;/font&gt;&lt;/span&gt;" style="text;html=1;align=center;verticalAlign=middle;whiteSpace=wrap;rounded=0;fillColor=#ECF3E7;strokeColor=#ADC8A4;strokeWidth=2;container=0;" vertex="1" parent="1">
          <mxGeometry x="990" y="531" width="150" height="50" as="geometry" />
        </mxCell>
        <mxCell id="pJ4A8e3GL2X-8J95vMgA-14" value="&lt;span style=&quot;font-family: &amp;quot;Cascadia Code&amp;quot;; font-size: 30px;&quot;&gt;&lt;font style=&quot;color: rgb(77, 77, 77);&quot;&gt;&quot;Heroica&quot;&lt;/font&gt;&lt;/span&gt;" style="text;html=1;align=center;verticalAlign=middle;whiteSpace=wrap;rounded=0;fillColor=#ECF3E7;strokeColor=#ADC8A4;strokeWidth=2;container=0;" vertex="1" parent="1">
          <mxGeometry x="1160" y="531" width="180" height="50" as="geometry" />
        </mxCell>
        <mxCell id="pJ4A8e3GL2X-8J95vMgA-15" style="edgeStyle=orthogonalEdgeStyle;rounded=0;orthogonalLoop=1;jettySize=auto;html=1;exitX=0.5;exitY=1;exitDx=0;exitDy=0;entryX=0.456;entryY=0.02;entryDx=0;entryDy=0;entryPerimeter=0;strokeWidth=4;strokeColor=#4D4D4D;endArrow=blockThin;endFill=1;" edge="1" parent="1" source="pJ4A8e3GL2X-8J95vMgA-8" target="pJ4A8e3GL2X-8J95vMgA-14">
          <mxGeometry relative="1" as="geometry">
            <Array as="points">
              <mxPoint x="950" y="470" />
              <mxPoint x="1242" y="470" />
            </Array>
          </mxGeometry>
        </mxCell>
        <mxCell id="pJ4A8e3GL2X-8J95vMgA-16" value="str" style="text;html=1;align=left;verticalAlign=middle;whiteSpace=wrap;rounded=0;fontSize=16;fontFamily=Cascadia Code;fontColor=#4D4D4D;" vertex="1" parent="1">
          <mxGeometry x="210" y="510" width="35" height="20" as="geometry" />
        </mxCell>
        <mxCell id="pJ4A8e3GL2X-8J95vMgA-17" value="str" style="text;html=1;align=left;verticalAlign=middle;whiteSpace=wrap;rounded=0;fontSize=16;fontFamily=Cascadia Code;fontColor=#4D4D4D;" vertex="1" parent="1">
          <mxGeometry x="380" y="510" width="35" height="20" as="geometry" />
        </mxCell>
        <mxCell id="pJ4A8e3GL2X-8J95vMgA-18" value="str" style="text;html=1;align=left;verticalAlign=middle;whiteSpace=wrap;rounded=0;fontSize=16;fontFamily=Cascadia Code;fontColor=#4D4D4D;" vertex="1" parent="1">
          <mxGeometry x="597.5" y="510" width="35" height="20" as="geometry" />
        </mxCell>
        <mxCell id="pJ4A8e3GL2X-8J95vMgA-19" value="str" style="text;html=1;align=left;verticalAlign=middle;whiteSpace=wrap;rounded=0;fontSize=16;fontFamily=Cascadia Code;fontColor=#4D4D4D;" vertex="1" parent="1">
          <mxGeometry x="750" y="510" width="35" height="20" as="geometry" />
        </mxCell>
        <mxCell id="pJ4A8e3GL2X-8J95vMgA-20" value="str" style="text;html=1;align=left;verticalAlign=middle;whiteSpace=wrap;rounded=0;fontSize=16;fontFamily=Cascadia Code;fontColor=#4D4D4D;" vertex="1" parent="1">
          <mxGeometry x="990" y="510" width="35" height="20" as="geometry" />
        </mxCell>
        <mxCell id="pJ4A8e3GL2X-8J95vMgA-21" value="str" style="text;html=1;align=left;verticalAlign=middle;whiteSpace=wrap;rounded=0;fontSize=16;fontFamily=Cascadia Code;fontColor=#4D4D4D;" vertex="1" parent="1">
          <mxGeometry x="1160" y="511" width="35" height="20" as="geometry" />
        </mxCell>
        <mxCell id="pJ4A8e3GL2X-8J95vMgA-22" value="&lt;font face=&quot;Cascadia Code&quot; style=&quot;font-size: 30px; color: rgb(77, 77, 77);&quot;&gt;0&lt;/font&gt;" style="rounded=0;whiteSpace=wrap;html=1;strokeWidth=1;fillColor=#DFEAF2;" vertex="1" parent="1">
          <mxGeometry x="565" y="310" width="70" height="40" as="geometry" />
        </mxCell>
        <mxCell id="pJ4A8e3GL2X-8J95vMgA-23" value="&lt;font face=&quot;Cascadia Code&quot; style=&quot;font-size: 30px;&quot;&gt;4&lt;/font&gt;" style="rounded=0;whiteSpace=wrap;html=1;strokeWidth=3;fillColor=#f8cecc;strokeColor=#b85450;fontColor=#AE4132;fontStyle=1" vertex="1" parent="1">
          <mxGeometry x="845" y="310" width="70" height="40" as="geometry" />
        </mxCell>
        <mxCell id="pJ4A8e3GL2X-8J95vMgA-24" value="&lt;font face=&quot;Cascadia Code&quot; style=&quot;font-size: 30px;&quot;&gt;5&lt;/font&gt;" style="rounded=0;whiteSpace=wrap;html=1;strokeWidth=3;fillColor=#f8cecc;strokeColor=#b85450;fontColor=#AE4132;fontStyle=1" vertex="1" parent="1">
          <mxGeometry x="915" y="310" width="70" height="40" as="geometry" />
        </mxCell>
        <mxCell id="pJ4A8e3GL2X-8J95vMgA-25" value="list" style="text;html=1;align=left;verticalAlign=middle;whiteSpace=wrap;rounded=0;fontSize=16;fontFamily=Cascadia Code;fontColor=#4D4D4D;container=0;" vertex="1" parent="1">
          <mxGeometry x="565" y="290" width="35" height="20" as="geometry" />
        </mxCell>
        <mxCell id="pJ4A8e3GL2X-8J95vMgA-26" value="&lt;font style=&quot;font-size: 19px;&quot;&gt;index&lt;/font&gt;" style="text;html=1;align=left;verticalAlign=middle;whiteSpace=wrap;rounded=0;fontSize=16;fontFamily=Cascadia Code;fontColor=#4D4D4D;container=0;" vertex="1" parent="1">
          <mxGeometry x="995" y="320" width="50" height="20" as="geometry" />
        </mxCell>
        <mxCell id="pJ4A8e3GL2X-8J95vMgA-27" value="&lt;font style=&quot;font-size: 24px; color: rgb(51, 51, 51);&quot;&gt;cafeterias&lt;/font&gt;" style="rounded=0;whiteSpace=wrap;html=1;fontFamily=Cascadia Code;fontSource=https%3A%2F%2Ffonts.googleapis.com%2Fcss%3Ffamily%3DCascadia%2BCode;strokeColor=#9673a6;strokeWidth=3;fillColor=#E9E3EC;dashed=1;" vertex="1" parent="1">
          <mxGeometry x="285" y="340" width="150" height="50" as="geometry" />
        </mxCell>
        <mxCell id="pJ4A8e3GL2X-8J95vMgA-28" style="edgeStyle=orthogonalEdgeStyle;rounded=0;orthogonalLoop=1;jettySize=auto;html=1;strokeWidth=2;endArrow=block;endFill=1;strokeColor=#4D4D4D;" edge="1" parent="1">
          <mxGeometry relative="1" as="geometry">
            <mxPoint x="555" y="364.5" as="targetPoint" />
            <mxPoint x="445" y="364.5" as="sourcePoint" />
          </mxGeometry>
        </mxCell>
        <mxCell id="pJ4A8e3GL2X-8J95vMgA-29" value="" style="rounded=0;whiteSpace=wrap;html=1;strokeWidth=1;fillColor=#DFEAF2;strokeColor=#000000;" vertex="1" parent="1">
          <mxGeometry x="635" y="350" width="70" height="70" as="geometry" />
        </mxCell>
        <mxCell id="pJ4A8e3GL2X-8J95vMgA-30" value="" style="rounded=0;whiteSpace=wrap;html=1;strokeWidth=1;fillColor=#DFEAF2;strokeColor=#000000;" vertex="1" parent="1">
          <mxGeometry x="705" y="350" width="70" height="70" as="geometry" />
        </mxCell>
        <mxCell id="pJ4A8e3GL2X-8J95vMgA-31" value="" style="rounded=0;whiteSpace=wrap;html=1;strokeWidth=3;fillColor=#f8cecc;strokeColor=#b85450;" vertex="1" parent="1">
          <mxGeometry x="775" y="350" width="70" height="70" as="geometry" />
        </mxCell>
        <mxCell id="pJ4A8e3GL2X-8J95vMgA-32" value="&lt;font face=&quot;Cascadia Code&quot; style=&quot;font-size: 30px;&quot;&gt;1&lt;/font&gt;" style="rounded=0;whiteSpace=wrap;html=1;strokeWidth=1;fillColor=#DFEAF2;strokeColor=#000000;fontStyle=0;fontColor=#4D4D4D;" vertex="1" parent="1">
          <mxGeometry x="635" y="310" width="70" height="40" as="geometry" />
        </mxCell>
        <mxCell id="pJ4A8e3GL2X-8J95vMgA-33" value="&lt;font face=&quot;Cascadia Code&quot; style=&quot;font-size: 30px;&quot;&gt;2&lt;/font&gt;" style="rounded=0;whiteSpace=wrap;html=1;strokeWidth=1;fillColor=#DFEAF2;strokeColor=#000000;fontStyle=0;fontColor=#4D4D4D;" vertex="1" parent="1">
          <mxGeometry x="705" y="310" width="70" height="40" as="geometry" />
        </mxCell>
        <mxCell id="pJ4A8e3GL2X-8J95vMgA-34" value="&lt;font style=&quot;font-size: 30px;&quot; face=&quot;Cascadia Code&quot;&gt;3&lt;/font&gt;" style="rounded=0;whiteSpace=wrap;html=1;strokeWidth=3;fillColor=#f8cecc;strokeColor=#b85450;fontStyle=1;fontColor=#AE4132;" vertex="1" parent="1">
          <mxGeometry x="775" y="310" width="70" height="40" as="geometry" />
        </mxCell>
      </root>
    </mxGraphModel>
  </diagram>
</mxfile>
